<svg xmlns="http://www.w3.org/2000/svg" viewBox="0 0 100 100"><path fill="#6AC9CC" d="M24.68 33.335s14.51 13.141-1.132 31.698c0 0-1.504 5.431 2.319 5.659 0 0 6.654-5.859 9.475-16.571 2.822-10.714-1.602-19.31-8.624-26.458 0 0-16.876 4.052-20.371 22.187-2.836 14.716 3.864 19.748 3.864 19.748s2.363 1.059 3.797-3.255c.001.001-13.897-19.955 10.672-33.008z"/><g fill="#FEE36F"><path d="M26.718 27.663c4.979 5.069 8.649 10.867 9.358 17.631 4.149-7.168 8.046-15.616 4.609-22.883-5.018-10.609-20.141-9.648-26.524.841-3.967 6.518-5.708 13.988-5.922 20.412 5.578-12.902 18.479-16.001 18.479-16.001z"/><path d="M28.04 68.37c-1.275 1.53-2.173 2.323-2.173 2.323-3.823-.229-2.319-5.659-2.319-5.659C39.19 46.476 24.68 33.335 24.68 33.335.111 46.388 14.009 66.344 14.009 66.344c-1.435 4.313-3.797 3.255-3.797 3.255s-.839-.635-1.797-2.099c-.947 3.403-2.052 6.498-2.485 8.616-1.013 4.954-1.028 16.745 9.905 18.244 10.936 1.498 14.206-10.021 12.55-19.915-.251-1.501-.353-2.549-.345-6.075z"/></g><path fill="#6AC9CC" d="M75.32 23.936s-14.51 13.141 1.132 31.698c0 0 1.504 5.431-2.319 5.659 0 0-6.654-5.859-9.475-16.571-2.822-10.714 1.602-19.31 8.624-26.458 0 0 16.876 4.052 20.371 22.187 2.836 14.716-3.864 19.748-3.864 19.748s-2.363 1.059-3.797-3.255c-.001 0 13.897-19.955-10.672-33.008z"/><g fill="#FEE36F"><path d="M73.282 18.264c-4.979 5.069-8.649 10.867-9.358 17.631-4.149-7.168-8.046-15.616-4.609-22.883 5.018-10.609 20.141-9.648 26.524.841 3.967 6.518 5.708 13.988 5.923 20.412-5.579-12.903-18.48-16.001-18.48-16.001z"/><path d="M71.96 58.971c1.275 1.53 2.173 2.323 2.173 2.323 3.823-.229 2.319-5.659 2.319-5.659C60.81 37.077 75.32 23.936 75.32 23.936c24.569 13.053 10.671 33.008 10.671 33.008 1.435 4.314 3.797 3.255 3.797 3.255s.839-.634 1.796-2.098c.947 3.403 2.052 6.498 2.485 8.616 1.013 4.954 1.028 16.745-9.905 18.244-10.936 1.498-14.206-10.021-12.55-19.915.252-1.501.354-2.549.346-6.075z"/></g><path fill="#136296" d="M41.142 22.195c-2.207-4.665-6.48-7.498-11.726-7.774-6.159-.322-12.322 3.04-15.687 8.568-3.608 5.927-5.734 13.232-5.993 20.579a29.968 29.968 0 00-1.886 6.186c-1.827 9.488.218 15.024 2.01 17.845a155.617 155.617 0 01-1.101 3.69c-.569 1.846-1.061 3.441-1.324 4.725-.809 3.956-.711 10.046 2.228 14.194 1.844 2.603 4.571 4.168 8.104 4.653a14.6 14.6 0 001.965.139c2.965 0 5.451-1.015 7.406-3.029 4.209-4.336 4.694-11.939 3.746-17.609-.237-1.414-.342-2.412-.338-5.794 2.23-2.696 5.496-7.526 7.285-14.317.796-3.022 1.053-5.968.77-8.855 4.231-7.334 8.039-15.804 4.541-23.201zm-26.549 1.32c3.174-5.216 8.967-8.395 14.77-8.084 4.862.255 8.822 2.878 10.865 7.196 3.123 6.602-.027 14.285-3.849 21.113a23.551 23.551 0 00-.461-2.092l-.008-.029a25.047 25.047 0 00-.275-.951l-.037-.122a24.375 24.375 0 00-.331-.976c-.034-.095-.073-.189-.109-.284a29.248 29.248 0 00-.24-.619c-.078-.191-.16-.382-.243-.573-.044-.101-.087-.201-.132-.301-.098-.22-.2-.439-.306-.658l-.079-.162a30.296 30.296 0 00-1.793-3.162l-.028-.044c-.165-.255-.336-.51-.511-.764l-.068-.098a38.052 38.052 0 00-1.612-2.155l-.205-.257c-.136-.166-.276-.332-.415-.498a51.453 51.453 0 00-.756-.876 43.802 43.802 0 00-.513-.567l-.306-.333a48.984 48.984 0 00-.871-.911.49.49 0 00-.148-.1c-.013-.006-.025-.012-.039-.017a.514.514 0 00-.169-.034l-.005-.001a.528.528 0 00-.118.014l-.056.014a6.549 6.549 0 00-.146.04l-.04.011a9.46 9.46 0 00-.214.063l-.018.005c-2.229.669-11.858 4.051-17.223 13.847.587-6.331 2.571-12.513 5.689-17.635zm13.294 51.013c1.141 6.818-.222 13.388-3.474 16.738-2.136 2.201-4.998 3.073-8.509 2.593-3.245-.445-5.74-1.87-7.416-4.235-2.751-3.884-2.831-9.649-2.063-13.406.253-1.236.738-2.809 1.3-4.63.292-.946.591-1.917.885-2.927.686.865 1.222 1.285 1.298 1.342a.494.494 0 00.14.074c.16.062.8.264 1.599.014.093-.029.185-.058.282-.1.141-.062.278-.137.412-.222.896-.573 1.618-1.668 2.149-3.265a.506.506 0 00-.065-.448c-.055-.079-5.469-7.991-3.316-16.904 1.456-6.028 5.992-11.139 13.483-15.195 1.824 1.869 12.572 14.14-1.43 30.751a.517.517 0 00-.101.191c-.037.133-.887 3.278.403 5.084.532.744 1.33 1.153 2.374 1.215a.3.3 0 00.03.001c.032 0 .062-.011.093-.017.027-.005.055-.005.081-.015a.507.507 0 00.16-.094c.073-.064.581-.519 1.337-1.345.02 2.558.131 3.507.348 4.8zm6.967-20.535c-2.508 9.522-8.155 15.217-9.165 16.177-.626-.078-1.085-.332-1.402-.774-.9-1.258-.402-3.609-.277-4.126 11.174-13.325 6.986-24.019 3.62-29.099a21.083 21.083 0 00-2.104-2.697 8.925 8.925 0 00-.321-.333 6.786 6.786 0 00-.185-.18.508.508 0 00-.577-.072c-7.952 4.225-12.769 9.617-14.317 16.025-.651 2.694-.658 5.278-.333 7.601a23.374 23.374 0 00.373 2.016c.943 4.088 2.749 7.065 3.283 7.886-.495 1.384-1.151 2.295-1.904 2.638a1.681 1.681 0 01-.167.065 1.52 1.52 0 01-.912.034 5.772 5.772 0 01-.392-.369l-.01-.01a8.586 8.586 0 01-.192-.204l-.033-.037a7.216 7.216 0 01-.323-.381l-.041-.05c-1.695-2.13-4.668-7.586-2.631-18.156 3.149-16.339 17.553-21.091 19.72-21.717.298.307.585.614.869.921.106.115.209.23.313.345.169.187.335.374.498.561.126.145.254.29.377.435.109.128.213.256.319.384.322.389.635.778.934 1.167l.055.071c2.364 3.098 3.996 6.236 4.906 9.438l.014.048c.07.25.136.5.198.751l.041.178c.08.339.151.678.216 1.019.034.182.069.363.099.546.022.132.04.265.059.397.032.221.061.442.086.663.331 2.882.1 5.823-.694 8.839zm6.788-10.237a.505.505 0 00-.689.193c-.207.367-.415.731-.624 1.092a.506.506 0 00.875.507c.211-.364.421-.732.63-1.102a.507.507 0 00-.192-.69zm2.204-4.302a.505.505 0 00-.673.241 59.398 59.398 0 01-1.071 2.145.505.505 0 10.895.469c.393-.75.76-1.484 1.089-2.182a.505.505 0 00-.24-.673zm1.763-4.501a.506.506 0 00-.639.321 35.343 35.343 0 01-.83 2.234.505.505 0 10.935.383c.32-.783.608-1.556.855-2.299a.505.505 0 00-.321-.639zm1.005-4.723a.503.503 0 00-.564.439 21.707 21.707 0 01-.426 2.323.505.505 0 00.983.235c.197-.828.347-1.646.446-2.432a.504.504 0 00-.439-.565zm-.22-4.814a.505.505 0 00-.412.584c.129.746.199 1.528.207 2.325.003.277.229.5.506.5h.005a.506.506 0 00.5-.511 15.622 15.622 0 00-.222-2.486.506.506 0 00-.584-.412zm-1.008-1.667a.507.507 0 00.647.304.506.506 0 00.303-.648 13.855 13.855 0 00-.505-1.21.505.505 0 10-.914.432c.175.366.332.743.469 1.122z"/><path fill="#136296" d="M33.237 68.371a.506.506 0 00-.504-.507h-.001a.506.506 0 00-.506.504c-.008 3.622.101 4.659.352 6.159.704 4.203.479 8.388-.632 11.784a.506.506 0 00.96.314c1.161-3.548 1.399-7.904.669-12.266-.241-1.44-.346-2.442-.338-5.988zm61.328-1.755c-.263-1.285-.754-2.879-1.324-4.725-.364-1.182-.74-2.407-1.101-3.69 1.791-2.821 3.837-8.357 2.009-17.845a29.907 29.907 0 00-1.886-6.186c-.258-7.346-2.385-14.651-5.992-20.579-3.364-5.528-9.526-8.893-15.687-8.568-5.245.275-9.519 3.109-11.726 7.774-3.498 7.397.31 15.867 4.541 23.2-.283 2.887-.026 5.833.77 8.855 1.789 6.792 5.055 11.621 7.285 14.317.004 3.382-.101 4.38-.338 5.794-.949 5.67-.463 13.273 3.746 17.609 1.956 2.015 4.44 3.029 7.406 3.029.633 0 1.289-.046 1.965-.139 3.533-.484 6.26-2.05 8.104-4.653 2.939-4.148 3.037-10.238 2.228-14.193zM59.772 13.228c2.043-4.318 6.003-6.941 10.865-7.196.256-.014.512-.02.768-.02 5.538 0 10.969 3.119 14.002 8.104 3.118 5.122 5.102 11.303 5.69 17.637-5.363-9.792-14.988-13.176-17.221-13.846l-.025-.008-.209-.061-.04-.011a6.549 6.549 0 00-.146-.04l-.056-.014a.507.507 0 00-.479.137c-.298.303-.587.607-.871.911l-.311.338a43.349 43.349 0 00-1.684 1.942l-.183.229a37.827 37.827 0 00-1.638 2.188l-.057.082c-.178.258-.351.517-.518.776l-.018.029a30.421 30.421 0 00-2.185 3.994l-.129.293c-.084.193-.167.386-.246.58-.083.204-.161.408-.238.613-.036.096-.076.192-.111.289-.118.325-.227.65-.331.976l-.037.12c-.099.317-.19.634-.276.952l-.008.029a23.551 23.551 0 00-.461 2.092c-3.821-6.83-6.97-14.513-3.847-21.115zm4.68 22.526c.025-.222.054-.443.086-.664.019-.132.038-.265.059-.397.029-.182.064-.362.098-.543.065-.343.136-.684.217-1.025l.04-.172c.062-.252.128-.503.199-.754l.012-.043c.91-3.205 2.544-6.345 4.91-9.445l.04-.051c.307-.401.629-.801.961-1.2.101-.121.2-.243.303-.364.125-.147.254-.294.382-.44a41.11 41.11 0 01.809-.903c.283-.307.57-.613.868-.92 2.167.626 16.571 5.378 19.72 21.717 2.603 13.504-3.022 18.699-3.62 19.206l-.014.004a1.531 1.531 0 01-.816-.012l-.049-.013c-.035-.011-.071-.026-.107-.04-.026-.01-.052-.019-.079-.031-.056-.025-.11-.059-.165-.09-.039-.022-.079-.04-.117-.066-.053-.035-.104-.077-.155-.118-.038-.03-.077-.056-.115-.089-.05-.044-.098-.096-.147-.146-.037-.038-.075-.072-.112-.113-.048-.053-.093-.115-.14-.173-.036-.045-.073-.087-.108-.135-.046-.064-.09-.135-.135-.204-.033-.052-.068-.099-.101-.153-.047-.078-.092-.165-.137-.25-.028-.053-.058-.101-.085-.156-.051-.101-.099-.211-.147-.319-.02-.046-.042-.087-.062-.134a9.175 9.175 0 01-.194-.5c.9-1.383 5.406-8.882 3.324-17.502-1.548-6.408-6.365-11.8-14.317-16.025a.508.508 0 00-.577.072c-.148.135-14.646 13.642 1.012 32.312.217.859.527 2.995-.278 4.122-.316.443-.776.697-1.403.775-1.01-.96-6.657-6.655-9.165-16.177-.795-3.017-1.026-5.958-.695-8.841zm27.06 44.47c-1.676 2.365-4.171 3.791-7.416 4.235-3.51.48-6.372-.392-8.509-2.593-3.251-3.35-4.615-9.92-3.474-16.738.216-1.293.328-2.242.349-4.801a19.998 19.998 0 001.302 1.314l.035.031.004.003c.047.04.1.071.156.092.026.01.053.01.081.015.031.006.061.017.093.017l.03-.001c1.044-.062 1.842-.471 2.374-1.215 1.29-1.805.439-4.951.403-5.084a.517.517 0 00-.101-.191c-6.357-7.541-8.493-15.042-6.347-22.294 1.353-4.573 4.077-7.603 4.916-8.458.468.253.924.511 1.369.772 6.673 3.923 10.744 8.765 12.112 14.413.674 2.782.608 5.469.198 7.852-.903 5.241-3.474 9.008-3.511 9.062a.51.51 0 00-.064.449c.61 1.836 1.472 3.009 2.56 3.487a2.584 2.584 0 001.924.069.525.525 0 00.097-.057c.076-.057.612-.477 1.298-1.342.294 1.01.593 1.981.885 2.927.562 1.821 1.047 3.394 1.299 4.63.768 3.757.689 9.523-2.063 13.406z"/><path fill="#136296" d="M55.081 13.228a.505.505 0 10-.914-.432c-3.523 7.448.363 15.985 4.628 23.353a.505.505 0 10.875-.507c-4.134-7.141-7.912-15.389-4.589-22.414zm12.631 62.504a.505.505 0 10-.98.25c.108.424.23.843.361 1.246a.507.507 0 00.638.324.506.506 0 00.323-.638c-.124-.382-.239-.78-.342-1.182zm-1.234-11.094a.506.506 0 00.999.157c.126-.796.195-1.458.238-2.283a.505.505 0 10-1.009-.053 19.657 19.657 0 01-.228 2.179zm-.312 2.25a29.657 29.657 0 00-.144 2.279.506.506 0 00.493.518h.013a.506.506 0 00.505-.493c.018-.729.065-1.469.139-2.202a.505.505 0 10-1.006-.102zm.693 7.269a.505.505 0 00.427-.573 25.002 25.002 0 01-.22-2.188.504.504 0 10-1.009.057c.044.775.121 1.542.229 2.278a.505.505 0 00.573.426zm.403-13.416h.004a.506.506 0 00.506-.502c.003-.385.004-.806.002-1.269a.506.506 0 00-.506-.504h-.001a.506.506 0 00-.504.507c.001.46 0 .878-.002 1.26a.505.505 0 00.501.508z"/></svg>