<svg data-name="Layer 1" xmlns="http://www.w3.org/2000/svg" viewBox="0 0 128 128"><path d="M53.464 93.977l-13.145 31-9.538-9.27-13.299-.412 14.276-33.663.331.673a10.935 10.935 0 008.203 6.001l6.636.99 5.417 3.962a11.58 11.58 0 001.12.719zm57.054 21.318l-13.299.412-9.538 9.27L74.28 93.376l1.092.162a10.93 10.93 0 009.596-3.345l4.587-4.9 6.338-2.208c.283-.099.556-.207.827-.327zM79.377 42.101l-10.5-.761-3.965-9.768a1 1 0 00-.946-.626.97.97 0 00-.913.621l-3.967 9.773-10.503.762a.973.973 0 00-.88.68.985.985 0 00.31 1.082l8.06 6.799-2.52 10.239a.997.997 0 00.388 1.069.975.975 0 001.11.035l8.957-5.569 8.953 5.593a1.012 1.012 0 001.5-1.103l-2.521-10.24 8.06-6.8a.991.991 0 00.296-1.078 1.023 1.023 0 00-.92-.708z" fill="#2e79bd"/><path d="M106.062 34.923l-5.146-6.137-1.704-7.825a5.67 5.67 0 00-3.386-4.038l-7.408-3.042-5.145-6.137a5.67 5.67 0 00-4.875-2.002l-7.973.748-7.408-3.042a5.67 5.67 0 00-5.247.492l-6.712 4.368-7.974.749a5.67 5.67 0 00-4.416 2.874l-3.914 6.988-6.712 4.368a5.67 5.67 0 00-2.575 4.597l-.218 8.006-3.914 6.987a5.67 5.67 0 00-.143 5.268l3.527 7.19-.218 8.005a5.67 5.67 0 002.321 4.731l6.465 4.727 3.527 7.19a5.67 5.67 0 004.254 3.11l7.92 1.182 6.466 4.727a5.67 5.67 0 005.211.778l7.563-2.635 7.921 1.181a5.67 5.67 0 004.976-1.734l5.472-5.847 7.563-2.635a5.67 5.67 0 003.6-3.848l2.128-7.721 5.472-5.848a5.67 5.67 0 001.4-5.08l-1.705-7.825 2.128-7.72a5.67 5.67 0 00-1.121-5.15zM64 72.513a25.952 25.952 0 1125.95-25.952A25.952 25.952 0 0164 72.513z" fill="#2d3e50"/></svg>