<svg xmlns="http://www.w3.org/2000/svg" viewBox="0 0 512 512"><g fill="#4c5870"><path d="M356.023 326.658c-1.68 0-3.387-.367-5.002-1.142-5.768-2.767-8.201-9.686-5.434-15.454l117.63-245.211c2.767-5.768 9.687-8.201 15.455-5.434 5.768 2.767 8.201 9.686 5.434 15.454l-117.631 245.21a11.585 11.585 0 01-10.452 6.577z"/><path d="M358.032 322.465c-2.054 0-4.134-.547-6.018-1.695l-114.133-69.576c-5.463-3.33-7.191-10.458-3.861-15.921 3.33-5.462 10.453-7.191 15.919-3.861l114.133 69.576c5.463 3.33 7.191 10.458 3.861 15.921a11.575 11.575 0 01-9.901 5.556z"/><path d="M128.537 392.851c-2.594 0-5.202-.868-7.36-2.646-4.937-4.069-5.64-11.369-1.571-16.306l115.366-139.964c4.07-4.937 11.368-5.64 16.306-1.571 4.937 4.069 5.64 11.369 1.571 16.306L137.484 388.634a11.569 11.569 0 01-8.947 4.217z"/></g><g fill="#e6e2e0"><path d="M55.612 512c-6.397 0-11.584-5.186-11.584-11.584V11.584C44.029 5.186 49.216 0 55.612 0s11.584 5.186 11.584 11.584v488.833c0 6.397-5.187 11.583-11.584 11.583z"/><path d="M500.416 467.971H11.584C5.187 467.971 0 462.785 0 456.388s5.187-11.584 11.584-11.584h488.833c6.397 0 11.584 5.186 11.584 11.584s-5.188 11.583-11.585 11.583z"/></g><g fill="#269af2"><circle cx="243.907" cy="241.3" r="28.959"/><circle cx="129.772" cy="382.228" r="28.959"/><circle cx="358.041" cy="310.884" r="28.959"/><circle cx="472.175" cy="74.321" r="28.959"/></g></svg>