<svg xmlns="http://www.w3.org/2000/svg" width="60" height="51"><g fill="none" fill-rule="evenodd"><g transform="translate(1)"><path d="M57.98 21.81c.03.125.03.255 0 .38a1.146 1.146 0 01-.33.57l-3.68 3.23.01.04.63 1.49 1.24 2.97a1.051 1.051 0 01-.69 1.41l-4.75 1.35-.29 4.82a1.071 1.071 0 01-1.25.97L44 38.25l-2.41 4.22a1.082 1.082 0 01-1.55.34L36 40.03l-4.04 2.78a1.082 1.082 0 01-1.55-.34L28 38.25l-4.87.79a1.071 1.071 0 01-1.25-.97l-.29-4.82-4.75-1.35a1.041 1.041 0 01-.69-1.4l1.88-4.47-3.68-3.23a1.058 1.058 0 01-.33-.61.813.813 0 010-.38c.038-.235.155-.45.33-.61l3.68-3.23-1.88-4.47a1.041 1.041 0 01.69-1.4l4.75-1.35.29-4.82a1.071 1.071 0 011.25-.97l4.87.79 2.41-4.22a1.082 1.082 0 011.55-.34L36 3.97l4.04-2.78a1.082 1.082 0 011.55.34L44 5.75l4.87-.79a1.071 1.071 0 011.25.97l.29 4.82 4.75 1.35a1.051 1.051 0 01.69 1.41l-1.24 2.97-.63 1.49-.01.04 3.68 3.23c.163.154.278.352.33.57z" fill="#DB4E6C"/><path d="M33 3.97l1.5-1.032-2.54-1.748a1.082 1.082 0 00-1.55.34l-.27.47L33 3.97zm8 1.78l2.746-.445L41.59 1.53a1.082 1.082 0 00-1.55-.34L38.86 2 41 5.75zm-16 0l.254-.445-2.124-.345a1.071 1.071 0 00-.947.333L25 5.75zm0 32.5l-2.817.457c.24.261.596.386.947.333l2.124-.345L25 38.25zm16 0L38.86 42l1.18.812a1.082 1.082 0 001.55-.34l2.156-3.772L41 38.25zm-8 1.78L30.14 42l.27.472a1.082 1.082 0 001.55.34l2.54-1.748L33 40.03zm24.65-18.79l-3.68-3.23.01-.04.63-1.49 1.24-2.97a1.051 1.051 0 00-.69-1.41l-4.75-1.35-.29-4.82a1.071 1.071 0 00-1.25-.97l-2.053.333c.173.17.28.396.3.637l.29 4.82 4.75 1.35a1.051 1.051 0 01.69 1.41l-1.24 2.97-.63 1.49-.01.04 3.68 3.23c.163.154.278.352.33.57.03.125.03.255 0 .38a1.146 1.146 0 01-.33.57l-3.68 3.23.01.04.63 1.49 1.24 2.97a1.051 1.051 0 01-.69 1.41l-4.75 1.35-.29 4.82c-.02.241-.127.467-.3.637l2.053.333a1.071 1.071 0 001.25-.97l.29-4.82 4.75-1.35a1.051 1.051 0 00.69-1.41l-1.24-2.97-.63-1.49-.01-.04 3.68-3.23c.163-.154.278-.352.33-.57a.813.813 0 000-.38 1.146 1.146 0 00-.33-.57z" fill="#A43B51"/><path d="M9 27v21a1.96 1.96 0 01-.26 1h-.01A1.984 1.984 0 017 50H2a2 2 0 01-2-2V27a2.006 2.006 0 012-2h5a2.006 2.006 0 012 2z" fill="#48BDFF"/><path d="M7 25H4a2.006 2.006 0 012 2v21a1.96 1.96 0 01-.26 1h-.01A1.984 1.984 0 014 50h3a1.984 1.984 0 001.73-1h.01A1.96 1.96 0 009 48V27a2.006 2.006 0 00-2-2z" fill="#2C98F6"/><path d="M56.68 36.57L37.94 47.98A7 7 0 0134.3 49H8.74A1.96 1.96 0 009 48V27h2.8a9.159 9.159 0 015.7 2 9.1 9.1 0 005.7 2h5.23c3.86 0 6.45 4.39 3.83 7h2.35c.432 0 .861-.07 1.27-.21l18.51-6.17a2.755 2.755 0 013.06.96v.01a2.73 2.73 0 01-.77 3.98z" fill="#FFDC00"/><path d="M29.26 38h2.35c.238-.002.475-.025.709-.069C34.829 35.314 32.257 31 28.43 31h-3c3.86 0 6.45 4.39 3.83 7zm28.19-5.41v-.01a2.755 2.755 0 00-3.06-.96l-.749.25c.314.18.589.422.809.71v.01a2.73 2.73 0 01-.77 3.98L34.94 47.98A7 7 0 0131.3 49h3a7 7 0 003.64-1.02l18.74-11.41a2.73 2.73 0 00.77-3.98z" fill="#FF8401"/><path d="M28.5 29.5a1.984 1.984 0 002.806 0L44.42 16.38c.373-.366.582-.867.58-1.39a1.972 1.972 0 00-.683-1.507 2.052 2.052 0 00-2.773.173L28.5 26.7a1.984 1.984 0 000 2.806V29.5z" fill="#FFF"/><circle fill="#FFF" cx="30.002" cy="16" r="3"/><path d="M30 13a2.962 2.962 0 00-1.5.416 2.976 2.976 0 010 5.168c.454.27.972.414 1.5.416a3 3 0 000-6z" fill="#CCC"/><circle fill="#FFF" cx="42.002" cy="28" r="3"/><path d="M42 25a2.962 2.962 0 00-1.5.416 2.976 2.976 0 010 5.168c.454.27.972.414 1.5.416a3 3 0 000-6z" fill="#CCC"/></g><path d="M19.03 26.03l-.577 1.37a9.236 9.236 0 012.5 1.2l1.08-2.568L18.35 22.8a1.058 1.058 0 01-.33-.61.813.813 0 010-.38c.038-.235.155-.45.33-.61l3.68-3.23-1.88-4.47a1.041 1.041 0 01.69-1.4l4.75-1.35.29-4.82c.02-.241.127-.467.3-.637l-2.05-.333a1.013 1.013 0 00-.382.019 1.064 1.064 0 00-.127.029 1.134 1.134 0 00-.215.107 1.108 1.108 0 00-.526.815l-.29 4.82-4.75 1.35a1.041 1.041 0 00-.69 1.4l1.88 4.47-3.68 3.23c-.175.16-.292.375-.33.61a.813.813 0 000 .38c.038.235.155.45.33.61l3.68 3.23zM29.254 5.305L32 5.75 34.14 2l-1.18-.81a1.082 1.082 0 00-1.55.34l-2.156 3.775zM3 50h3a2 2 0 01-2-2V27a2.006 2.006 0 012-2H3a2.006 2.006 0 00-2 2v21a2 2 0 002 2z" fill="#FFF"/><path fill="#FFF" d="M0 40.003h2v8H0z"/><path d="M1.02 45a1 1 0 01-.01-2h.01a1 1 0 010 2z" fill="#000"/><path d="M3 51h5a2.981 2.981 0 002.22-1H35.3a8 8 0 004.161-1.166L58.2 37.429a3.729 3.729 0 001.123-5.341 1.056 1.056 0 00-.071-.108 3.759 3.759 0 00-4.175-1.306l-18.52 6.173a2.925 2.925 0 01-.947.153h-.545a4.638 4.638 0 00-.129-3.376A5.992 5.992 0 0029.432 30H24.2a8.157 8.157 0 01-5.076-1.78A10.162 10.162 0 0012.8 26h-1.984A3 3 0 008 24H3a3 3 0 00-3 3v13a1 1 0 002 0V27a1 1 0 011-1h5a1 1 0 011 1v21a1 1 0 01-1 1H3a1 1 0 01-1-1 1 1 0 00-2 0 3 3 0 003 3zm14.875-21.216A10.165 10.165 0 0024.2 32h5.231a3.973 3.973 0 013.656 2.39 2.556 2.556 0 01-.278 2.61H26.72a10.016 10.016 0 00-5.547 1.68l-.731.49a1 1 0 101.116 1.661l.724-.487A8.018 8.018 0 0126.72 39h8.89a4.9 4.9 0 001.586-.261L55.7 32.573a1.752 1.752 0 011.9.547c.015.026.032.05.049.074a1.728 1.728 0 01-.491 2.525l-18.737 11.41A6.01 6.01 0 0135.3 48H11V28h1.8a8.154 8.154 0 015.075 1.784z" fill="#000" fill-rule="nonzero"/><path d="M15.424 24.166a1 1 0 00.666.254h.01a1 1 0 00.637-1.764l-.728-.7 3.68-3.23a1 1 0 00.263-1.139l-1.839-4.521 4.75-1.35a1 1 0 00.725-.9l.29-4.82-1-.06 1.09.017 4.87.79a1 1 0 001.028-.491l2.41-4.22-.868-.5.983.484 4.04 2.78a1 1 0 001.134 0l4.04-2.78.115.012 2.41 4.22a1 1 0 001.028.491l4.87-.79-.16-.987.252 1.03.29 4.82a1 1 0 00.725.9l4.791 1.411-1.869 4.46a1 1 0 00.26 1.138l3.672 3.287-3.68 3.231a1 1 0 00-.264 1.137l.641 1.53a1 1 0 001.845-.772l-.363-.866 3.146-2.763a2.038 2.038 0 000-3.055l-3.131-2.756 1.592-3.8a2.037 2.037 0 00-.043-1.659 2.078 2.078 0 00-1.3-1.1l-4.068-1.156-.248-4.116a2.048 2.048 0 00-.763-1.463 2.1 2.1 0 00-1.643-.43l-4.186.679-2.067-3.62a2.066 2.066 0 00-1.338-.984 2.108 2.108 0 00-1.646.318L37 2.756 33.529.368a2.1 2.1 0 00-1.648-.32 2.067 2.067 0 00-1.339.986l-2.066 3.618-4.189-.68a2.106 2.106 0 00-1.64.431c-.45.36-.728.892-.765 1.467l-.248 4.112-4.063 1.155a2.052 2.052 0 00-1.3 1.084 2.029 2.029 0 00-.044 1.667l1.6 3.806-3.145 2.761a2.037 2.037 0 000 3.051l.742.66z" fill="#000"/><path d="M33 27.393a1 1 0 101.414 1.414L46.118 17.1a2.979 2.979 0 00.009-4.223 3.057 3.057 0 00-4.214 0l-13.42 13.42a1 1 0 001.414 1.414l13.42-13.42a1.009 1.009 0 011.385 0 .976.976 0 01.001 1.383L33 27.393z" fill="#000"/><path d="M35 16a4 4 0 10-8 0 4 4 0 008 0zm-6 0a2 2 0 114 0 2 2 0 01-4 0zm14 16a4 4 0 100-8 4 4 0 000 8zm0-6a2 2 0 110 4 2 2 0 010-4z" fill="#000" fill-rule="nonzero"/></g></svg>