<svg width="512" height="512" fill="none" xmlns="http://www.w3.org/2000/svg"><path d="M477.657 242.342l-8-8a8.017 8.017 0 00-5.014-2.318l-21.625-1.742-63.633-49.368a35.971 35.971 0 00-7.792-4.583l28.845-17.676a22.41 22.41 0 008.189-27.456 22.408 22.408 0 00-25.501-13.062 20.02 20.02 0 00-30.365-10.682l-6.617 4.495a20.004 20.004 0 00-8.348 20.596 19.988 19.988 0 003.041 7.186c.531.769 1.114 1.5 1.746 2.187l-10.644 6.387-8.614-21.534a23.702 23.702 0 00-3.382-5.851c.037-.306.056-.614.057-.922v-8h4a12.01 12.01 0 0012-12V73.89l4.558-9.117A32.772 32.772 0 00344 50.19a32.386 32.386 0 00-9.549-23.054l-8.793-8.793A8.007 8.007 0 00320.001 16a8.001 8.001 0 00-5.657 2.343l-5.183 5.183a57.085 57.085 0 01-22.2 13.722 18.024 18.024 0 00-11.385 22.77L280 73.3v39.73a25.899 25.899 0 00-18.4 20.7 223.647 223.647 0 00-.8 68.483l3.272 22.907c.068.481.18.954.333 1.414l.706 2.118A40.035 40.035 0 00271.057 240H66a18.021 18.021 0 00-18 18v38a8 8 0 008 8v172a20.025 20.025 0 0020 20h216a19.854 19.854 0 007.422-1.442 55.992 55.992 0 0044.938-8.82A56 56 0 00312 383.999v-80a8 8 0 008-8v-38a18.068 18.068 0 00-.118-2h9.872L344 312.984v23.015a8.002 8.002 0 005.029 7.428l40 16a7.986 7.986 0 006.337-.171 8.002 8.002 0 004.223-4.729l8-24a8.002 8.002 0 00-1.932-8.187l-14.016-14.016-6.263-56.369 25.78 18.414 23.829 19.158a8.003 8.003 0 0010.94-.862l32-35.3a7.998 7.998 0 00-.27-11.023zm-84.313-105.9a6.427 6.427 0 01-1.782 8.906l-5.343 3.562-7.125-10.687 5.344-3.563a6.435 6.435 0 018.906 1.777v.005zm-39.272-5.7a4.001 4.001 0 011.062-5.554l6.617-4.5a3.962 3.962 0 012.24-.691 4 4 0 012.258 7.309l-5.213 3.541-2.351 1.41a3.991 3.991 0 01-4.613-1.516v.001zm-28.626 36.839a8.006 8.006 0 006.67-.721l33.459-20.075 7.021 10.53-42.976 24.632a16.5 16.5 0 01-13.968.922 16.506 16.506 0 01-5.953-3.999 16.509 16.509 0 01-3.692-6.148l-11.617-34.851a7.5 7.5 0 0114.08-5.157l12.1 30.256a7.99 7.99 0 004.876 4.61v.001zM320 95.999h-8a8 8 0 00-8 8v8h-8v-32h24v16zm-42.616 40.356a10.05 10.05 0 01.641-2.2 23.6 23.6 0 001.186 8.782l11.617 34.85a32.43 32.43 0 0015.513 18.372l-28.052 15.3-1.644-11.511a207.674 207.674 0 01.739-63.593zM64 257.999a2 2 0 012-2h236a2 2 0 012 2v30H64v-30zm288 182a40 40 0 11-40-40 40.045 40.045 0 0140 40zm-56-53.659a55.943 55.943 0 00-38.367 40.209 55.953 55.953 0 0015.229 53.45H76a4 4 0 01-4-4v-172h224v82.341zm91.094-44.92L360 330.583v-10.584h20.687l10.16 10.161-3.753 11.26zm52.043-69.085l-11.44-9.2 15.535-16.786 17.192 1.385.533.533-21.82 24.068z" fill="#000"/><path d="M304 416v24a8.001 8.001 0 004.422 7.155l16 8a8.002 8.002 0 0010.677-3.605 7.999 7.999 0 00-3.521-10.705L320 435.056V416a8 8 0 10-16 0zm-136 40v-16h24a56 56 0 0056-56 56 56 0 00-56-56h-80v32h80c6.365 0 12.47 2.529 16.971 7.029a24.005 24.005 0 010 33.942A24.005 24.005 0 01192 408h-24v-16l-56 32 56 32z" fill="#000"/></svg>