<svg xmlns="http://www.w3.org/2000/svg" viewBox="0 0 235.129 235.129"><path d="M212.027 84.433l-3.954.003c-10.912-40.466-48.044-69.228-90.549-69.228-42.253 0-79.347 28.769-90.44 69.236l-3.987-.003C10.361 84.441 0 94.802 0 107.538v25.941c0 12.734 10.361 23.094 23.097 23.094h2.874c3.697 29.087 28.603 51.648 58.681 51.648h5.515c2.926 6.87 9.744 11.699 17.669 11.699h19.455c10.585 0 19.197-8.611 19.197-19.195 0-10.586-8.612-19.199-19.197-19.199h-19.455c-7.923 0-14.739 4.828-17.666 11.695h-5.519c-24.347 0-44.154-19.805-44.154-44.148V92.785c7.758-36.299 40.035-62.576 77.027-62.576 37.237 0 69.551 26.267 77.108 62.548v56.31a7.5 7.5 0 007.5 7.5h9.9c12.735 0 23.096-10.36 23.096-23.095V107.53c.001-12.735-10.36-23.097-23.101-23.097zM107.836 196.526h19.455a4.203 4.203 0 014.197 4.199 4.2 4.2 0 01-4.197 4.195h-19.455a4.2 4.2 0 01-4.195-4.195 4.201 4.201 0 014.195-4.199zM15 133.479v-25.941c0-4.464 3.632-8.097 8.09-8.097l2.407.002v42.129h-2.4c-4.465.001-8.097-3.63-8.097-8.093zm205.129-.008c0 4.463-3.632 8.095-8.096 8.095h-2.4V99.435l2.4-.002c4.464 0 8.096 3.632 8.096 8.097v25.941z"/></svg>