<svg xmlns="http://www.w3.org/2000/svg" viewBox="0 0 100.353 100.352"><path d="M69.55 58.903h-.016a1.502 1.502 0 01-1.273-.732L54.003 34.226a1.49 1.49 0 01-.103-.208 18.608 18.608 0 01-2.716-9.693c.018-10.311 8.414-18.689 18.72-18.689h.023a18.58 18.58 0 0113.226 5.501 18.595 18.595 0 015.453 13.238c0 3.378-.934 6.705-2.704 9.642a1.442 1.442 0 01-.134.277L70.823 58.199a1.508 1.508 0 01-1.273.704zm-12.831-25.98l12.862 21.601 13.476-21.555c.034-.092.077-.182.13-.267 1.582-2.527 2.418-5.407 2.418-8.328v-.002a15.614 15.614 0 00-4.578-11.119 15.607 15.607 0 00-11.104-4.618h-.02c-8.655 0-15.705 7.035-15.719 15.692 0 2.954.831 5.836 2.402 8.332.054.083.098.172.133.264z"/><path d="M69.909 31.352h-.016a7.857 7.857 0 01-5.596-2.323 7.868 7.868 0 01-2.315-5.611 7.86 7.86 0 012.326-5.593 7.873 7.873 0 015.595-2.312h.008c4.365.005 7.914 3.563 7.91 7.932a7.864 7.864 0 01-2.326 5.597 7.862 7.862 0 01-5.586 2.31zm-.007-12.839a4.89 4.89 0 00-3.476 1.437 4.878 4.878 0 00-1.444 3.473 4.893 4.893 0 001.439 3.487 4.878 4.878 0 003.475 1.442h.01a4.882 4.882 0 003.471-1.434 4.88 4.88 0 001.444-3.475 4.929 4.929 0 00-4.914-4.929l-.005-.001zm6.419 4.931h.01-.01zm18.078 56.737H4.541a1.5 1.5 0 01-1.379-2.09l16.345-38.242a1.501 1.501 0 011.379-.911h38.568a1.5 1.5 0 110 3H21.876L6.813 77.18h85.313L77.528 43.03a1.5 1.5 0 112.759-1.179L95.778 78.09a1.502 1.502 0 01-1.379 2.091z"/><path d="M69.727 79.912a1.5 1.5 0 01-1.488-1.33c-.009-.074-.967-7.454-11.3-9.207-.961-.163-2.494-.312-4.27-.483-9.779-.946-18.699-2.174-20.419-6.747-1.11-2.95.512-5.199 1.814-7.006 1.426-1.978 1.896-2.842 1.168-4.083-.461-.786-1.929-1.426-3.349-2.045-2.78-1.212-6.588-2.872-6.608-7.422a1.5 1.5 0 011.493-1.507h.007a1.5 1.5 0 011.5 1.493c.011 2.42 1.824 3.385 4.808 4.686 1.86.811 3.783 1.649 4.738 3.278 1.785 3.044-.011 5.536-1.322 7.355-1.23 1.706-1.958 2.821-1.44 4.195 1.205 3.203 12.481 4.293 17.9 4.818 1.833.177 3.416.33 4.482.511 12.532 2.127 13.734 11.43 13.779 11.825a1.5 1.5 0 01-1.493 1.669z"/></svg>